#!OML:ASF C:\Vicon Data\Big\jianyuan-13\jianyuan\Session 1\Capture.male.ASF
:FULLY-SPECIFIED
:DEGREES
223
root -7.766113 17.529986 -14.239864 11.432784 4.196357 1.223370
lowerback -7.818780 -1.100388 -1.958885 
upperback -0.117750 -1.335360 0.374228 
thorax 4.317715 -0.718896 1.335204 
lowerneck -10.614345 -1.287659 4.221313 
upperneck 12.565265 -2.045526 -3.769065 
head 5.445969 -1.128659 -2.035683 
rclavicle 0.000000 0.000000 
rhumerus -41.417719 -20.609572 -77.664696 
rradius 28.035026 
rwrist 30.791679 
rhand -21.110597 -14.841355 
rfingers 0.000000 
rthumb 5.267576 -44.755915 
lclavicle 0.000000 0.000000 
lhumerus -25.454412 24.300106 84.781396 
lradius 28.967077 
lwrist -48.480254 
lhand -22.942643 0.827481 
lfingers 0.000000 
lthumb 3.498499 30.778485 
rfemur -35.983032 4.423788 18.061194 
rtibia 39.764259 
rfoot -13.621835 -6.858930 
rtoes -18.825112 
lfemur -16.869501 -8.068455 -21.702098 
ltibia 14.843035 
lfoot -10.577313 4.217261 
ltoes -16.419878 
224
root -7.767538 17.534892 -14.198280 11.452424 4.208717 1.228590
lowerback -7.799798 -1.116751 -1.965846 
upperback -0.100580 -1.356063 0.373305 
thorax 4.325890 -0.729204 1.335930 
lowerneck -10.607189 -1.291841 4.260989 
upperneck 12.549541 -2.051423 -3.811018 
head 5.438618 -1.132591 -2.055461 
rclavicle 0.000000 0.000000 
rhumerus -41.496317 -20.747223 -77.588233 
rradius 28.028771 
rwrist 30.701267 
rhand -20.957322 -14.909088 
rfingers 0.000000 
rthumb 5.415531 -44.819890 
lclavicle 0.000000 0.000000 
lhumerus -25.061407 23.534135 85.138900 
lradius 29.205968 
lwrist -47.895075 
lhand -23.087874 0.867786 
lfingers 0.000000 
lthumb 3.358253 30.821080 
rfemur -35.932290 4.589615 17.952092 
rtibia 38.731983 
rfoot -13.719277 -6.779025 
rtoes -19.189789 
lfemur -16.601447 -8.257900 -21.657473 
ltibia 14.623771 
lfoot -10.851962 4.193917 
ltoes -14.593848 
225
root -7.769177 17.539217 -14.157951 11.519149 4.263275 1.212839
lowerback -7.822170 -1.152361 -1.972704 
upperback -0.100349 -1.404152 0.411435 
thorax 4.341781 -0.753726 1.373320 
lowerneck -10.598387 -1.284678 4.215674 
upperneck 12.539609 -2.036320 -3.794966 
head 5.435326 -1.126164 -2.041635 
rclavicle 0.000000 0.000000 
rhumerus -41.544373 -20.726493 -77.548627 
rradius 28.057959 
rwrist 30.413232 
rhand -20.779500 -15.056369 
rfingers 0.000000 
rthumb 5.587228 -44.962674 
lclavicle 0.000000 0.000000 
lhumerus -24.716723 22.711494 85.535759 
lradius 29.536830 
lwrist -47.257264 
lhand -23.217460 0.946611 
lfingers 0.000000 
lthumb 3.233113 30.901858 
rfemur -35.926368 4.724309 17.870959 
rtibia 37.708734 
rfoot -13.814883 -6.701641 
rtoes -19.774420 
lfemur -16.390399 -8.368807 -21.599530 
ltibia 14.368152 
lfoot -10.944451 4.159628 
ltoes -13.695589 
226
root -7.771277 17.543418 -14.118000 11.589276 4.343904 1.161184
lowerback -7.856486 -1.199667 -1.959273 
upperback -0.100646 -1.470767 0.479032 
thorax 4.364868 -0.787385 1.427487 
lowerneck -10.587198 -1.272060 4.119976 
upperneck 12.532396 -2.010486 -3.744463 
head 5.433907 -1.114433 -2.007970 
rclavicle 0.000000 0.000000 
rhumerus -41.579086 -20.659146 -77.482376 
rradius 28.066554 
rwrist 30.187485 
rhand -20.589512 -15.152468 
rfingers 0.000000 
rthumb 5.770686 -45.053826 
lclavicle 0.000000 0.000000 
lhumerus -24.403776 21.981347 85.917846 
lradius 29.897781 
lwrist -46.733970 
lhand -23.314674 0.966572 
lfingers 0.000000 
lthumb 3.139225 30.923200 
rfemur -35.919172 4.883009 17.815833 
rtibia 36.699691 
rfoot -13.909265 -6.615039 
rtoes -20.157218 
lfemur -16.184185 -8.370741 -21.527706 
ltibia 14.077801 
lfoot -10.860124 4.142879 
ltoes -13.988678 
227
root -7.774496 17.548331 -14.076227 11.579508 4.391629 1.084493
lowerback -7.843130 -1.231369 -1.921945 
upperback -0.071777 -1.517636 0.529255 
thorax 4.389753 -0.810342 1.453079 
lowerneck -10.574149 -1.274370 4.065631 
upperneck 12.526793 -2.008160 -3.719470 
head 5.430913 -1.114111 -1.990830 
rclavicle 0.000000 0.000000 
rhumerus -41.654310 -20.785645 -77.294469 
rradius 27.981044 
rwrist 30.475485 
rhand -20.388326 -14.999564 
rfingers 0.000000 
rthumb 5.964894 -44.895549 
lclavicle 0.000000 0.000000 
lhumerus -24.082461 21.440808 86.200857 
lradius 30.180178 
lwrist -46.458097 
lhand -23.388363 0.850010 
lfingers 0.000000 
lthumb 3.068031 30.807677 
rfemur -35.815470 5.151574 17.755961 
rtibia 35.705428 
rfoot -14.028012 -6.524594 
rtoes -19.710479 
lfemur -15.869242 -8.264053 -21.464380 
ltibia 13.767386 
lfoot -10.747671 4.128340 
ltoes -14.704459 
228
root -7.776064 17.553352 -14.033608 11.539891 4.425432 1.106813
lowerback -7.795284 -1.261997 -1.937215 
upperback -0.034700 -1.556087 0.524923 
thorax 4.403364 -0.829456 1.453232 
lowerneck -10.557380 -1.271789 4.108933 
upperneck 12.507854 -2.007021 -3.748485 
head 5.421393 -1.113468 -2.006449 
rclavicle 0.000000 0.000000 
rhumerus -41.737102 -20.945037 -77.143034 
rradius 27.845631 
rwrist 30.862224 
rhand -20.354421 -14.857494 
rfingers 0.000000 
rthumb 5.997625 -44.752632 
lclavicle 0.000000 0.000000 
lhumerus -23.756914 20.743094 86.483257 
lradius 30.464101 
lwrist -45.864251 
lhand -23.463751 0.843914 
lfingers 0.000000 
lthumb 2.995266 30.802597 
rfemur -35.670021 5.356223 17.598863 
rtibia 34.743402 
rfoot -14.107009 -6.406816 
rtoes -20.299444 
lfemur -15.511128 -8.229130 -21.513070 
ltibia 13.468385 
lfoot -10.711161 4.127678 
ltoes -15.071961 
229
root -7.778546 17.558544 -13.992272 11.553441 4.486166 1.103998
lowerback -7.774092 -1.293300 -1.917634 
upperback -0.031637 -1.599315 0.516577 
thorax 4.395610 -0.850214 1.428929 
lowerneck -10.531720 -1.268567 4.170236 
upperneck 12.509661 -2.007968 -3.781086 
head 5.416544 -1.113565 -2.026519 
rclavicle 0.000000 0.000000 
rhumerus -41.865242 -21.154413 -76.965874 
rradius 27.630856 
rwrist 31.449289 
rhand -20.519862 -14.672941 
rfingers 0.000000 
rthumb 5.837905 -44.572466 
lclavicle 0.000000 0.000000 
lhumerus -23.466470 20.104236 86.704999 
lradius 30.726745 
lwrist -45.437453 
lhand -23.581763 0.755293 
lfingers 0.000000 
lthumb 2.881276 30.715554 
rfemur -35.584507 5.535226 17.481349 
rtibia 33.806611 
rfoot -14.202589 -6.366036 
rtoes -20.669876 
lfemur -15.197504 -8.232439 -21.508324 
ltibia 13.121635 
lfoot -10.659496 4.147567 
ltoes -15.330267 
230
root -7.781098 17.562930 -13.951495 11.598687 4.563518 1.069843
lowerback -7.788183 -1.323550 -1.867912 
upperback -0.037216 -1.644263 0.519532 
thorax 4.398206 -0.871508 1.398551 
lowerneck -10.520289 -1.266103 4.220110 
upperneck 12.532593 -2.009477 -3.809661 
head 5.420841 -1.114415 -2.044002 
rclavicle 0.000000 0.000000 
rhumerus -41.991319 -21.354789 -76.807345 
rradius 27.441986 
rwrist 31.920525 
rhand -20.690002 -14.531322 
rfingers 0.000000 
rthumb 5.673640 -44.435353 
lclavicle 0.000000 0.000000 
lhumerus -23.197574 19.449627 86.914349 
lradius 30.998609 
lwrist -45.012520 
lhand -23.732434 0.639922 
lfingers 0.000000 
lthumb 2.735736 30.602114 
rfemur -35.533978 5.695575 17.410348 
rtibia 32.901413 
rfoot -14.329358 -6.374245 
rtoes -20.963305 
lfemur -14.908838 -8.261525 -21.454701 
ltibia 12.740688 
lfoot -10.596513 4.188492 
ltoes -15.546560 
231
root -7.782727 17.565472 -13.910425 11.649624 4.644959 1.002627
lowerback -7.844317 -1.350847 -1.796463 
upperback -0.022893 -1.687174 0.548041 
thorax 4.445169 -0.891949 1.381539 
lowerneck -10.547795 -1.265714 4.230485 
upperneck 12.575721 -2.009895 -3.828115 
head 5.438593 -1.115992 -2.052545 
rclavicle 0.000000 0.000000 
rhumerus -42.063597 -21.482977 -76.716904 
rradius 27.391758 
rwrist 31.936819 
rhand -20.657263 -14.525267 
rfingers 0.000000 
rthumb 5.705219 -44.428476 
lclavicle 0.000000 0.000000 
lhumerus -22.934323 18.691715 87.164819 
lradius 31.312910 
lwrist -44.395353 
lhand -23.903600 0.564482 
lfingers 0.000000 
lthumb 2.570445 30.528715 
rfemur -35.488010 5.843181 17.387850 
rtibia 32.034822 
rfoot -14.500599 -6.397670 
rtoes -21.378886 
lfemur -14.620996 -8.304503 -21.363512 
ltibia 12.342224 
lfoot -10.529840 4.250709 
ltoes -15.782678 
232
root -7.784487 17.570107 -13.867944 11.695233 4.671980 1.024517
lowerback -7.899027 -1.357438 -1.833648 
upperback -0.021320 -1.692878 0.570626 
thorax 4.479603 -0.896225 1.423957 
lowerneck -10.543859 -1.288889 4.129680 
upperneck 12.623655 -2.034951 -3.768574 
head 5.453626 -1.129435 -2.019919 
rclavicle 0.000000 0.000000 
rhumerus -42.108345 -21.466266 -76.677585 
rradius 27.491155 
rwrist 31.364983 
rhand -20.424306 -14.748800 
rfingers 0.000000 
rthumb 5.930150 -44.645785 
lclavicle 0.000000 0.000000 
lhumerus -22.642503 18.137607 87.402607 
lradius 31.478434 
lwrist -44.075620 
lhand -24.015253 0.512368 
lfingers 0.000000 
lthumb 2.462615 30.477886 
rfemur -35.442239 6.059617 17.216207 
rtibia 31.218103 
rfoot -14.695610 -6.321330 
rtoes -20.526974 
lfemur -14.326271 -8.323552 -21.385094 
ltibia 11.981999 
lfoot -10.496562 4.307264 
ltoes -16.020161 
